HIERARCHY
ROOT Hips
{
  OFFSET 5.84602e-005 68.8428 3.50346
  CHANNELS 6 Xposition Yposition Zposition Zrotation Xrotation Yrotation
  JOINT Spine
  {
    OFFSET 0 8.597 -4.6522
    CHANNELS 3 Zrotation Xrotation Yrotation
    JOINT Spine1
    {
      OFFSET 0 7.8454 0.4098
      CHANNELS 3 Zrotation Xrotation Yrotation
      JOINT Spine2
      {
        OFFSET 0 9.7078 -2.1609
        CHANNELS 3 Zrotation Xrotation Yrotation
        JOINT Neck
        {
          OFFSET 0 21.8761 -0.4549
          CHANNELS 3 Zrotation Xrotation Yrotation
          JOINT Head
          {
            OFFSET 0 12.3537 3.3602
            CHANNELS 3 Zrotation Xrotation Yrotation
            End Site
            {
              OFFSET 0.0001 18.9506 0.5657
            }
          }
        }
        JOINT LeftShoulder
        {
          OFFSET 2.2086 21.1115 7.2329
          CHANNELS 3 Zrotation Xrotation Yrotation
          JOINT LeftArm
          {
            OFFSET 13.1193 3.0282 -4.8998
            CHANNELS 3 Zrotation Xrotation Yrotation
            JOINT LeftForeArm
            {
              OFFSET 27.4081 -0.0973053 -0.2375
              CHANNELS 3 Zrotation Xrotation Yrotation
              JOINT LeftHand
              {
                OFFSET 22.8641 0.0662994 -0.1369
                CHANNELS 3 Zrotation Xrotation Yrotation
                JOINT LeftHandIndex1
                {
                  OFFSET 8.8614 0.775009 2.4612
                  CHANNELS 3 Zrotation Xrotation Yrotation
                  JOINT LeftHandIndex2
                  {
                    OFFSET 3.3146 -0.808304 0.5841
                    CHANNELS 3 Zrotation Xrotation Yrotation
                    JOINT LeftHandIndex3
                    {
                      OFFSET 2.2628 -0.552002 0.3989
                      CHANNELS 3 Zrotation Xrotation Yrotation
                      End Site
                      {
                        OFFSET 1.6102 -0.4807 0.2612
                      }
                    }
                  }
                }
                JOINT LeftHandMiddle1
                {
                  OFFSET 8.9937 0.895004 0.2143
                  CHANNELS 3 Zrotation Xrotation Yrotation
                  JOINT LeftHandMiddle2
                  {
                    OFFSET 4.0984 0.0113983 -0.0242
                    CHANNELS 3 Zrotation Xrotation Yrotation
                    JOINT LeftHandMiddle3
                    {
                      OFFSET 2.2716 0.00689697 -0.0138001
                      CHANNELS 3 Zrotation Xrotation Yrotation
                      End Site
                      {
                        OFFSET 2.0404 -0.1441 0.0027
                      }
                    }
                  }
                }
                JOINT LeftHandRing1
                {
                  OFFSET 8.5234 0.597198 -2.0164
                  CHANNELS 3 Zrotation Xrotation Yrotation
                  JOINT LeftHandRing2
                  {
                    OFFSET 3.7188 -0.188293 -0.2328
                    CHANNELS 3 Zrotation Xrotation Yrotation
                    JOINT LeftHandRing3
                    {
                      OFFSET 2.1191 -0.106598 -0.1332
                      CHANNELS 3 Zrotation Xrotation Yrotation
                      End Site
                      {
                        OFFSET 1.8737 -0.2304 -0.0886
                      }
                    }
                  }
                }
                JOINT LeftHandPinky1
                {
                  OFFSET 7.9094 -0.601089 -3.4825
                  CHANNELS 3 Zrotation Xrotation Yrotation
                  JOINT LeftHandPinky2
                  {
                    OFFSET 2.2874 -0.477005 -0.6314
                    CHANNELS 3 Zrotation Xrotation Yrotation
                    JOINT LeftHandPinky3
                    {
                      OFFSET 1.6774 -0.349396 -0.4633
                      CHANNELS 3 Zrotation Xrotation Yrotation
                      End Site
                      {
                        OFFSET 1.4888 -0.4091 -0.3416
                      }
                    }
                  }
                }
                JOINT LeftHandThumb1
                {
                  OFFSET 1.833 -1.3875 1.3896
                  CHANNELS 3 Zrotation Xrotation Yrotation
                  JOINT LeftHandThumb2
                  {
                    OFFSET 3.4129 -1.121 2.5732
                    CHANNELS 3 Zrotation Xrotation Yrotation
                    JOINT LeftHandThumb3
                    {
                      OFFSET 2.2474 -0.804199 1.6192
                      CHANNELS 3 Zrotation Xrotation Yrotation
                      End Site
                      {
                        OFFSET 1.6527 -0.5689 1.1317
                      }
                    }
                  }
                }
              }
            }
          }
        }
        JOINT RightShoulder
        {
          OFFSET -2.2086 21.1115 7.2329
          CHANNELS 3 Zrotation Xrotation Yrotation
          JOINT RightArm
          {
            OFFSET -13.1216 3.0287 -4.9007
            CHANNELS 3 Zrotation Xrotation Yrotation
            JOINT RightForeArm
            {
              OFFSET -27.4081 -0.0973053 -0.2375
              CHANNELS 3 Zrotation Xrotation Yrotation
              JOINT RightHand
              {
                OFFSET -22.8641 0.0664063 -0.1369
                CHANNELS 3 Zrotation Xrotation Yrotation
                JOINT RightHandIndex1
                {
                  OFFSET -8.8614 0.774994 2.4612
                  CHANNELS 3 Zrotation Xrotation Yrotation
                  JOINT RightHandIndex2
                  {
                    OFFSET -3.3146 -0.808304 0.5841
                    CHANNELS 3 Zrotation Xrotation Yrotation
                    JOINT RightHandIndex3
                    {
                      OFFSET -2.2628 -0.552002 0.3989
                      CHANNELS 3 Zrotation Xrotation Yrotation
                      End Site
                      {
                        OFFSET -1.6102 -0.4807 0.2612
                      }
                    }
                  }
                }
                JOINT RightHandMiddle1
                {
                  OFFSET -8.9937 0.894989 0.2143
                  CHANNELS 3 Zrotation Xrotation Yrotation
                  JOINT RightHandMiddle2
                  {
                    OFFSET -4.0984 0.0113983 -0.0242
                    CHANNELS 3 Zrotation Xrotation Yrotation
                    JOINT RightHandMiddle3
                    {
                      OFFSET -2.2716 0.00691223 -0.0138001
                      CHANNELS 3 Zrotation Xrotation Yrotation
                      End Site
                      {
                        OFFSET -2.0404 -0.1441 0.0027
                      }
                    }
                  }
                }
                JOINT RightHandRing1
                {
                  OFFSET -8.5234 0.597198 -2.0164
                  CHANNELS 3 Zrotation Xrotation Yrotation
                  JOINT RightHandRing2
                  {
                    OFFSET -3.7188 -0.188309 -0.2328
                    CHANNELS 3 Zrotation Xrotation Yrotation
                    JOINT RightHandRing3
                    {
                      OFFSET -2.1191 -0.106598 -0.1332
                      CHANNELS 3 Zrotation Xrotation Yrotation
                      End Site
                      {
                        OFFSET -1.8737 -0.2304 -0.0886
                      }
                    }
                  }
                }
                JOINT RightHandPinky1
                {
                  OFFSET -7.9094 -0.601105 -3.4825
                  CHANNELS 3 Zrotation Xrotation Yrotation
                  JOINT RightHandPinky2
                  {
                    OFFSET -2.2874 -0.477005 -0.6314
                    CHANNELS 3 Zrotation Xrotation Yrotation
                    JOINT RightHandPinky3
                    {
                      OFFSET -1.6774 -0.349396 -0.4633
                      CHANNELS 3 Zrotation Xrotation Yrotation
                      End Site
                      {
                        OFFSET -1.4888 -0.4091 -0.3416
                      }
                    }
                  }
                }
                JOINT RightHandThumb1
                {
                  OFFSET -1.833 -1.38751 1.3896
                  CHANNELS 3 Zrotation Xrotation Yrotation
                  JOINT RightHandThumb2
                  {
                    OFFSET -3.41299 -1.12099 2.5732
                    CHANNELS 3 Zrotation Xrotation Yrotation
                    JOINT RightHandThumb3
                    {
                      OFFSET -2.24741 -0.804108 1.6192
                      CHANNELS 3 Zrotation Xrotation Yrotation
                      End Site
                      {
                        OFFSET -1.6527 -0.5689 1.1317
                      }
                    }
                  }
                }
              }
            }
          }
        }
      }
    }
  }
  JOINT RightUpLeg
  {
    OFFSET -9.1966 3.8861 -0.7581
    CHANNELS 3 Zrotation Xrotation Yrotation
    JOINT RightLeg
    {
      OFFSET -0.7359 -41.0265 0
      CHANNELS 3 Zrotation Xrotation Yrotation
      JOINT RightFoot
      {
        OFFSET 0 -40.2855 0
        CHANNELS 3 Zrotation Xrotation Yrotation
        JOINT RightToeBase
        {
          OFFSET 0 -5.6122 11.7359
          CHANNELS 3 Zrotation Xrotation Yrotation
          End Site
          {
            OFFSET 0 0 7.8731
          }
        }
      }
    }
  }
  JOINT LeftUpLeg
  {
    OFFSET 9.1965 3.8864 -0.7581
    CHANNELS 3 Zrotation Xrotation Yrotation
    JOINT LeftLeg
    {
      OFFSET 0.7359 -41.0268 0
      CHANNELS 3 Zrotation Xrotation Yrotation
      JOINT LeftFoot
      {
        OFFSET 0 -40.2855 0
        CHANNELS 3 Zrotation Xrotation Yrotation
        JOINT LeftToeBase
        {
          OFFSET 0 -5.6122 11.7359
          CHANNELS 3 Zrotation Xrotation Yrotation
          End Site
          {
            OFFSET 0 0 7.8731
          }
        }
      }
    }
  }
}
MOTION
Frames:	6
Frame Time:	0.0333333
5.84602e-005 68.8428 3.50346 0 0 -0 0 0 -0 0 0 -0 0 0 -0 0 0 -0 0 0 -0 0 0 -0 0 0 -0 0 0 -0 0 0 -0 0 0 -0 0 0 -0 0 0 -0 0 0 -0 -0.0146107 -8.87603e-005 -2.63497e-007 2.99804e-018 -2.42657e-020 -1.42182e-022 0 0 -0 -0.0187562 -0.001176 5.858e-005 5.06224e-018 3.88251e-019 1.21329e-020 0 0 -0 -0.012269 -0.00324817 0.000675346 -1.74678e-018 3.88251e-019 -0 0 0 -0 0 0 -0 0 0 -0 0 0 -0 0 0 -0 0 0 -0 0 0 -0 0 0 -0 0 0 -0 0 0 -0 0 0 -0 0.0149955 -9.10982e-005 2.64101e-007 -9.69331e-018 1.21329e-020 -4.7394e-023 0 0 -0 0.0189956 -0.00119102 -5.96516e-005 -5.41541e-019 0 2.42657e-020 0 0 -0 0.0122698 -0.00324857 -0.000673756 -2.00796e-019 0 -1.94126e-019 0 0 -0 0 0 -0 0 0 -0 3.39842 1.33031 -0.0637918 -5.65207e-008 0.834868 -0.000436188 -3.39935 -2.16518 -0.0642563 -8.89002e-024 -1.18485e-023 -1.48106e-024 -3.39844 1.35642 0.0640283 -3.18788e-007 0.782166 -0.000588827 3.39931 -2.13858 0.0634662 1.1399e-023 0 -0 
-0.0527205 17.7869 7.63205 -0 -66.6681 -0 0.125175 3.7476 -0.197808 0.264199 7.49477 -0.405144 0.264199 7.49477 -0.405144 5.74766e-007 13.3585 1.49353e-006 -3.42772e-007 6.6656 1.26629e-007 13.9585 2.46046 4.13875 -44.5997 10.8275 34.5795 21.1947 13.9294 -58.176 -5.22136 17.4706 0.151926 3.42031e-008 -1.00329e-007 -1.23071e-008 3.42031e-008 -1.00329e-007 -1.23071e-008 3.42031e-008 -1.00329e-007 -1.23071e-008 3.42031e-008 -1.00329e-007 -1.23071e-008 -0.0145797 -8.77063e-005 -3.57535e-006 3.42029e-008 -1.00328e-007 -1.23199e-008 3.42031e-008 -1.00329e-007 -1.23071e-008 -0.01876 -0.00117686 6.21718e-005 3.42027e-008 -1.00327e-007 -1.23239e-008 3.42031e-008 -1.00329e-007 -1.23071e-008 -0.0122433 -0.00324219 0.000667444 3.4202e-008 -1.00328e-007 -1.23188e-008 3.42031e-008 -1.00329e-007 -1.23071e-008 3.42031e-008 -1.00329e-007 -1.23071e-008 3.42031e-008 -1.00329e-007 -1.23071e-008 -6.8184 1.86682 -7.66607 31.1778 16.0079 -18.6758 -15.5991 22.9332 47.2506 5.21931 17.4651 -0.156911 4.0064e-007 -1.84736e-007 -1.95463e-006 -1.61634e-007 -2.63938e-007 -1.23541e-006 4.0064e-007 -1.84736e-007 -1.95463e-006 4.0064e-007 -1.84736e-007 -1.95463e-006 0.0149936 -9.0523e-005 -8.42691e-006 -7.06225e-031 -3.18055e-015 -1.27222e-014 4.0064e-007 -1.84736e-007 -1.95463e-006 0.0190075 -0.00119328 -6.0556e-005 -3.53113e-031 -3.18055e-015 -6.36111e-015 4.0064e-007 -1.84736e-007 -1.95463e-006 0.0122524 -0.00324169 -0.000668646 -1.63181e-007 -2.6367e-007 -1.23529e-006 4.0064e-007 -1.84736e-007 -1.95463e-006 -1.61634e-007 -2.63938e-007 -1.23541e-006 4.0064e-007 -1.84736e-007 -1.95463e-006 -169.653 -75.839 -175.576 2.38265 33.3873 -2.88653 -7.44034 10.0515 0.124632 -3.97569e-016 3.18055e-015 1.78906e-015 141.077 -76.8124 151.107 -1.47642 9.40906 0.835554 7.55964 7.09026 0.630143 2.13776e-007 -1.05449e-007 -8.16499e-007 
-0.0921258 -3.66454 7.36258 -180 -83.3313 -180 0.181046 5.43428 -0.295067 0.393022 10.8675 -0.61163 0.393022 10.8675 -0.61163 -3.50047e-006 19.239 6.95496e-007 8.95452e-008 9.66512 9.48125e-008 20.1238 3.55748 6.00724 -68.5349 12.2777 50.6999 36.1435 5.60372 -82.3874 -7.66734 25.3829 0.247921 1.59028e-015 3.97569e-016 -0 9.25586e-008 5.28629e-008 -5.12929e-009 1.85117e-007 1.05726e-007 -1.02586e-008 1.59028e-015 3.97569e-016 -0 -0.0145869 -8.86853e-005 -2.92362e-006 1.85117e-007 1.05727e-007 -1.02453e-008 1.59028e-015 3.97569e-016 -0 -0.0187371 -0.00117366 6.24097e-005 1.85117e-007 1.05727e-007 -1.02432e-008 1.59028e-015 3.97569e-016 -0 -0.0122774 -0.00325042 0.000676008 1.85117e-007 1.05726e-007 -1.02525e-008 1.59028e-015 3.97569e-016 -0 9.25586e-008 5.28629e-008 -5.12929e-009 1.85117e-007 1.05726e-007 -1.02586e-008 -9.78163 2.69569 -11.1649 48.7457 21.8235 -28.1708 -32.14 20.0444 69.5999 7.66143 25.4013 -0.240462 -1.19271e-015 -9.93923e-016 1.27222e-014 -7.95139e-016 -1.19271e-015 9.54166e-015 -1.19271e-015 -7.95139e-016 9.54166e-015 -1.19271e-015 -9.93923e-016 1.27222e-014 0.0149853 -9.06559e-005 8.97443e-006 -1.19271e-015 1.98785e-016 -0 -1.19271e-015 -9.93923e-016 1.27222e-014 0.0189852 -0.0011904 -6.63992e-005 -0 -5.96354e-016 -0 -1.19271e-015 -9.93923e-016 1.27222e-014 0.0122613 -0.00324582 -0.000670233 7.95139e-016 -1.98785e-016 3.18055e-015 -1.19271e-015 -9.93923e-016 1.27222e-014 -7.95139e-016 -1.19271e-015 9.54166e-015 -1.19271e-015 -7.95139e-016 9.54166e-015 -171.574 -29.1588 -175.791 3.90375 46.638 -4.60206 -9.32299 16.3403 0.304584 -1.98785e-016 -1.19271e-015 -1.59028e-015 158.577 -33.6504 165.656 -2.138 9.37289 1.03349 9.526 13.2655 0.735422 -4.77083e-015 -3.18055e-015 3.18055e-015 
-0.086973 1.06176 7.63812 -180 -89.9981 -180 0.168631 5.05937 -0.272999 0.363717 10.118 -0.564335 0.363717 10.118 -0.564336 -3.22756e-006 17.6412 2.02641e-006 -3.10496e-007 8.99857 4.02775e-008 18.7599 3.31454 5.59153 -63.0889 12.2205 47.1174 33.0836 8.32221 -77.4778 -7.26026 23.737 0.259227 -2.40048e-007 -1.26658e-007 -2.40648e-007 4.76525e-007 7.73999e-009 -2.19245e-008 2.40048e-007 1.26658e-007 2.40648e-007 -2.40048e-007 -1.26658e-007 -2.40648e-007 -0.0146103 -8.90716e-005 -2.48602e-007 4.47266e-016 -1.49089e-016 -9.54166e-015 -2.40048e-007 -1.26658e-007 -2.40648e-007 -0.0187492 -0.00117523 5.59876e-005 7.45443e-016 -9.93923e-017 1.27222e-014 -2.40048e-007 -1.26658e-007 -2.40648e-007 -0.0122554 -0.00324566 0.000669824 9.44227e-016 -3.97569e-016 3.18055e-015 -2.40048e-007 -1.26658e-007 -2.40648e-007 4.76525e-007 7.73999e-009 -2.19245e-008 2.40048e-007 1.26658e-007 2.40648e-007 -9.26016 2.54849 -10.4817 44.6525 20.6499 -25.9815 -28.48 21.5759 65.0148 7.24765 23.8089 -0.221504 7.95139e-016 -5.56597e-015 6.36111e-015 7.95139e-016 -6.36111e-015 6.36111e-015 7.95139e-016 -6.36111e-015 6.36111e-015 7.95139e-016 -5.56597e-015 6.36111e-015 0.0150035 -9.15537e-005 3.11465e-008 -2.86309e-008 -2.18334e-007 -2.95786e-007 7.95139e-016 -5.56597e-015 6.36111e-015 0.0189781 -0.00118987 -6.12085e-005 -7.95139e-016 -1.59028e-015 6.36111e-015 7.95139e-016 -5.56597e-015 6.36111e-015 0.0122837 -0.00325082 -0.000680381 1.59028e-015 2.38542e-015 -0 7.95139e-016 -5.56597e-015 6.36111e-015 7.95139e-016 -6.36111e-015 6.36111e-015 7.95139e-016 -6.36111e-015 6.36111e-015 -171.291 -39.4455 -176.173 3.52402 43.8058 -4.19114 -9.01052 14.9038 0.403937 -1.19271e-015 0 1.59028e-015 157.329 -43.0675 165.536 -1.994 9.76469 1.01347 9.08061 11.752 0.729579 -1.30035e-006 4.93036e-007 1.97296e-006 
-0.0869755 1.06175 7.63812 -180 -89.9981 -180 0.168632 5.05944 -0.272998 0.363715 10.118 -0.564334 0.363716 10.118 -0.564334 2.70679e-006 17.4031 -2.88838e-006 1.15717e-008 8.99856 -7.60964e-008 18.7599 3.31458 5.59151 -63.0889 12.2205 47.1174 33.0836 8.32221 -77.4778 -7.37413 23.8289 0.28725 8.54615e-007 2.04733e-007 -3.33272e-008 7.92412e-007 1.63364e-007 9.42393e-008 3.78086e-007 1.96888e-007 -1.17921e-008 8.54615e-007 2.04733e-007 -3.33272e-008 -0.0146188 -8.85257e-005 -5.70574e-006 3.78083e-007 1.96889e-007 -1.17673e-008 8.54615e-007 2.04733e-007 -3.33272e-008 -0.0187827 -0.00117796 6.25738e-005 4.99979e-007 2.79511e-007 -2.66876e-007 8.54615e-007 2.04733e-007 -3.33272e-008 -0.0122922 -0.00325389 0.000676589 3.78084e-007 1.96886e-007 -1.17816e-008 8.54615e-007 2.04733e-007 -3.33272e-008 7.92412e-007 1.63364e-007 9.42393e-008 3.78086e-007 1.96888e-007 -1.17921e-008 -9.36497 2.57713 -10.5592 44.6525 20.6499 -25.9815 -28.48 21.5759 65.0148 7.35506 23.9489 -0.222483 -1.97886e-007 -3.77177e-007 2.22129e-008 -7.72948e-007 -5.56468e-007 2.65987e-008 2.23096e-007 -3.41408e-007 3.24115e-007 -1.97886e-007 -3.77177e-007 2.22129e-008 0.0149905 -9.29335e-005 -2.54316e-006 -4.58066e-008 -2.3368e-007 -2.84044e-007 -1.97886e-007 -3.77177e-007 2.22129e-008 0.0190053 -0.00119183 -6.07636e-005 -1.59028e-015 -4.77083e-015 -0 -1.97886e-007 -3.77177e-007 2.22129e-008 0.0122772 -0.0032499 -0.000679386 -1.59028e-015 0 -0 -1.97886e-007 -3.77177e-007 2.22129e-008 -7.72948e-007 -5.56468e-007 2.65987e-008 2.23096e-007 -3.41408e-007 3.24115e-007 -171.288 -39.444 -176.17 3.52491 43.812 -4.19419 -9.0968 14.9026 0.520829 -2.5842e-015 -4.77083e-015 -3.18055e-015 157.329 -43.0676 165.536 -1.994 9.76452 1.01347 9.08061 11.7521 0.729567 -2.2279e-006 -3.2025e-006 8.09494e-008 
-0.0869736 1.06175 7.63812 -180 -89.9981 -180 0.168633 5.05946 -0.272999 0.363716 10.118 -0.564335 0.363717 10.118 -0.564336 7.81864e-006 17.1647 -3.84068e-006 2.74349e-007 8.99856 -8.11604e-008 18.7599 3.31454 5.59152 -63.0889 12.2205 47.1174 33.0836 8.32221 -77.4778 -7.48813 23.9207 0.315503 -1.63997e-015 5.2181e-016 9.54166e-015 -1.09332e-015 1.26725e-015 9.54166e-015 -5.71506e-016 -9.93923e-017 1.59028e-014 -1.63997e-015 5.2181e-016 9.54166e-015 -0.0145965 -8.83039e-005 2.72723e-006 2.0728e-007 -9.36748e-008 -2.67191e-007 -1.63997e-015 5.2181e-016 9.54166e-015 -0.01878 -0.00117727 6.13903e-005 2.06719e-007 -9.38104e-008 -2.67188e-007 -1.63997e-015 5.2181e-016 9.54166e-015 -0.0122745 -0.00324893 0.000681477 2.07582e-007 -9.41032e-008 -2.67104e-007 -1.63997e-015 5.2181e-016 9.54166e-015 -1.09332e-015 1.26725e-015 9.54166e-015 -5.71506e-016 -9.93923e-017 1.59028e-014 -9.46977 2.60581 -10.6367 44.6525 20.6499 -25.9815 -28.48 21.5759 65.0148 7.46259 24.0888 -0.223772 1.47526e-007 -1.79532e-007 -3.01826e-006 1.79244e-008 9.52167e-007 -6.33238e-008 1.47526e-007 -1.79532e-007 -3.01826e-006 1.47526e-007 -1.79532e-007 -3.01826e-006 0.0150047 -9.0506e-005 1.00503e-006 1.47731e-007 -1.79929e-007 -3.01823e-006 1.47526e-007 -1.79532e-007 -3.01826e-006 0.0189885 -0.00119123 -5.80632e-005 8.4205e-008 -4.289e-007 -3.29053e-006 1.47526e-007 -1.79532e-007 -3.01826e-006 0.0122568 -0.00324597 -0.00067565 8.49541e-008 -4.2846e-007 -3.29048e-006 1.47526e-007 -1.79532e-007 -3.01826e-006 1.79244e-008 9.52167e-007 -6.33238e-008 1.47526e-007 -1.79532e-007 -3.01826e-006 -171.285 -39.4425 -176.168 3.52579 43.8182 -4.19723 -9.1831 14.9013 0.637717 6.53408e-008 -8.46258e-007 -6.41866e-008 157.329 -43.0675 165.536 -1.994 9.76461 1.01347 9.08059 11.7521 0.72958 -4.33982e-008 -1.49591e-006 1.09981e-006 
